<svg xmlns="http://www.w3.org/2000/svg" width="1800" height="1200" viewBox="0 0 1800 1200">
  <rect width="100%" height="100%" fill="white"/>
  <!-- 9x6 inner-corner board => 10x7 squares -->
  <g fill="black">
    <rect x="0" y="0" width="180" height="171.4286"/>
    <rect x="360" y="0" width="180" height="171.4286"/>
    <rect x="720" y="0" width="180" height="171.4286"/>
    <rect x="1080" y="0" width="180" height="171.4286"/>
    <rect x="1440" y="0" width="180" height="171.4286"/>

    <rect x="180" y="171.4286" width="180" height="171.4286"/>
    <rect x="540" y="171.4286" width="180" height="171.4286"/>
    <rect x="900" y="171.4286" width="180" height="171.4286"/>
    <rect x="1260" y="171.4286" width="180" height="171.4286"/>
    <rect x="1620" y="171.4286" width="180" height="171.4286"/>

    <rect x="0" y="342.8572" width="180" height="171.4286"/>
    <rect x="360" y="342.8572" width="180" height="171.4286"/>
    <rect x="720" y="342.8572" width="180" height="171.4286"/>
    <rect x="1080" y="342.8572" width="180" height="171.4286"/>
    <rect x="1440" y="342.8572" width="180" height="171.4286"/>

    <rect x="180" y="514.2858" width="180" height="171.4286"/>
    <rect x="540" y="514.2858" width="180" height="171.4286"/>
    <rect x="900" y="514.2858" width="180" height="171.4286"/>
    <rect x="1260" y="514.2858" width="180" height="171.4286"/>
    <rect x="1620" y="514.2858" width="180" height="171.4286"/>

    <rect x="0" y="685.7144" width="180" height="171.4286"/>
    <rect x="360" y="685.7144" width="180" height="171.4286"/>
    <rect x="720" y="685.7144" width="180" height="171.4286"/>
    <rect x="1080" y="685.7144" width="180" height="171.4286"/>
    <rect x="1440" y="685.7144" width="180" height="171.4286"/>

    <rect x="180" y="857.143" width="180" height="171.4286"/>
    <rect x="540" y="857.143" width="180" height="171.4286"/>
    <rect x="900" y="857.143" width="180" height="171.4286"/>
    <rect x="1260" y="857.143" width="180" height="171.4286"/>
    <rect x="1620" y="857.143" width="180" height="171.4286"/>

    <rect x="0" y="1028.5716" width="180" height="171.4284"/>
    <rect x="360" y="1028.5716" width="180" height="171.4284"/>
    <rect x="720" y="1028.5716" width="180" height="171.4284"/>
    <rect x="1080" y="1028.5716" width="180" height="171.4284"/>
    <rect x="1440" y="1028.5716" width="180" height="171.4284"/>
  </g>
</svg>
